#N canvas 646 421 694 441 10;
#X msg 294 172 \; pd dsp 1;
#X obj 359 49 loadbang;
#X obj 80 273 adc~ 1 2 3 4 5 6 7 8 9 10 11 12 13 14 15 16;
#N canvas 1223 661 730 390 levelmeter______________________________
0;
#X obj 109 321 table levelmeters 16;
#X obj 96 181 levelwriter 0;
#X obj 120 204 levelwriter 1;
#X obj 149 226 levelwriter 2;
#X obj 173 249 levelwriter 3;
#X obj 199 182 levelwriter 4;
#X obj 224 205 levelwriter 5;
#X obj 252 227 levelwriter 6;
#X obj 277 250 levelwriter 7;
#X obj 300 183 levelwriter 8;
#X obj 324 206 levelwriter 9;
#X obj 353 228 levelwriter 10;
#X obj 377 251 levelwriter 11;
#X obj 403 184 levelwriter 12;
#X obj 428 207 levelwriter 13;
#X obj 457 229 levelwriter 14;
#X obj 481 252 levelwriter 15;
#X obj 95 44 inlet~;
#X obj 119 69 inlet~;
#X obj 148 96 inlet~;
#X obj 172 121 inlet~;
#X obj 193 47 inlet~;
#X obj 217 72 inlet~;
#X obj 246 101 inlet~;
#X obj 270 124 inlet~;
#X obj 285 52 inlet~;
#X obj 309 77 inlet~;
#X obj 338 104 inlet~;
#X obj 362 129 inlet~;
#X obj 383 55 inlet~;
#X obj 425 80 inlet~;
#X obj 454 111 inlet~;
#X obj 478 132 inlet~;
#X connect 17 0 1 0;
#X connect 18 0 2 0;
#X connect 19 0 3 0;
#X connect 20 0 4 0;
#X connect 21 0 5 0;
#X connect 22 0 6 0;
#X connect 23 0 7 0;
#X connect 24 0 8 0;
#X connect 25 0 9 0;
#X connect 26 0 10 0;
#X connect 27 0 11 0;
#X connect 28 0 12 0;
#X connect 29 0 13 0;
#X connect 30 0 14 0;
#X connect 31 0 15 0;
#X connect 32 0 16 0;
#X restore 79 309 pd levelmeter______________________________;
#X obj 63 167 shmem levelmeters 16;
#X obj 63 108 metro 50;
#X obj 58 19 loadbang;
#X obj 66 79 tgl 15 0 empty empty empty 17 7 0 10 -262144 -1 -1 1 1
;
#X msg 64 50 1;
#N canvas 0 50 450 250 (subpatch) 0;
#X array loop 211681 float 2;
#X coords 0 1 211681 -1 200 140 1 0 0;
#X restore 446 219 graph;
#X obj 446 134 soundfiler;
#X msg 441 97 read -resize drumloop.wav loop;
#X obj 6 318 dac~, f 6;
#X obj 31 228 tabplay~ loop;
#X obj 30 179 bng 15 250 50 0 empty empty empty 17 7 0 10 -262144 -1
-1;
#X connect 1 0 0 0;
#X connect 1 0 11 0;
#X connect 1 0 14 0;
#X connect 2 0 3 0;
#X connect 2 1 3 1;
#X connect 2 2 3 2;
#X connect 2 3 3 3;
#X connect 2 4 3 4;
#X connect 2 5 3 5;
#X connect 2 6 3 6;
#X connect 2 7 3 7;
#X connect 2 8 3 8;
#X connect 2 9 3 9;
#X connect 2 10 3 10;
#X connect 2 11 3 11;
#X connect 2 12 3 12;
#X connect 2 13 3 13;
#X connect 2 14 3 14;
#X connect 2 15 3 15;
#X connect 5 0 4 0;
#X connect 6 0 8 0;
#X connect 7 0 5 0;
#X connect 8 0 7 0;
#X connect 11 0 10 0;
#X connect 13 0 12 1;
#X connect 13 0 12 0;
#X connect 13 0 3 0;
#X connect 13 1 14 0;
#X connect 14 0 13 0;
