#N canvas 1177 364 450 300 10;
#X obj 54 93 inlet~;
#X obj 55 139 spectrum \$1;
#X obj 229 240 table fft_\$1 512;
#X obj 200 177 r shmemupdate;
#X obj 228 216 shmem fft_\$1 512;
#X obj 117 241 table wave_\$1 512;
#X obj 119 217 shmem wave_\$1 512;
#X obj 135 125 tabwrite~ wave_\$1;
#X connect 0 0 1 0;
#X connect 0 0 7 0;
#X connect 3 0 4 0;
#X connect 3 0 6 0;
#X connect 3 0 7 0;
