#N canvas 646 421 450 300 10;
#X obj 137 120 dac~;
#X obj 99 41 osc~ 440;
#X obj 142 74 *~ 0.1;
#X msg 232 96 \; pd dsp 1;
#X obj 238 55 loadbang;
#X connect 1 0 2 0;
#X connect 2 0 0 0;
#X connect 4 0 3 0;
